<svg width="212" height="342" viewBox="0 0 212 342" fill="none" xmlns="http://www.w3.org/2000/svg">
<path d="M59.3171 52.4577C59.2706 79.4947 37.9372 101.21 11.8694 101.165C-14.1983 101.12 -35.4568 79.3317 -35.4103 52.2947C-35.3638 25.2577 -14.0304 3.54267 12.0374 3.58754C38.1051 3.63241 59.3637 25.4207 59.3171 52.4577Z" fill="white" stroke="white" stroke-width="7"/>
<path d="M133.497 72.2835C133.469 88.4487 120.724 101.365 105.232 101.338C89.7397 101.312 77.0391 88.3516 77.0669 72.1864C77.0947 56.0212 89.8398 43.1048 105.332 43.1315C120.824 43.1581 133.525 56.1183 133.497 72.2835Z" fill="white" stroke="white" stroke-width="7"/>
<rect x="-24.6504" y="111.978" width="148.403" height="94.7348" rx="4" transform="rotate(0.0986152 -24.6504 111.978)" fill="white"/>
<path d="M111.255 165.086C107.985 163.159 107.971 158.434 111.23 156.487L176.646 117.382C179.973 115.393 184.199 117.782 184.211 121.657L184.44 199.446C184.451 203.321 180.239 205.737 176.9 203.77L111.255 165.086Z" fill="white"/>
<rect x="17.0801" y="198.165" width="65.8237" height="22.1458" transform="rotate(0.0986152 17.0801 198.165)" fill="white"/>
<line y1="-7.5" x2="125.499" y2="-7.5" transform="matrix(-0.0113518 0.999936 -0.999929 -0.0118989 43.3887 215.463)" stroke="white" stroke-width="15"/>
<line y1="-6.5" x2="129.495" y2="-6.5" transform="matrix(-0.38975 0.920921 -0.912881 -0.408225 25.4414 211.743)" stroke="white" stroke-width="13"/>
<line y1="-6.5" x2="128.835" y2="-6.5" transform="matrix(0.397863 0.917445 -0.909049 0.41669 61.3359 219.175)" stroke="white" stroke-width="13"/>
</svg>
