<svg width="1237" height="1610" viewBox="0 0 1237 1610" fill="none" xmlns="http://www.w3.org/2000/svg">
<path opacity="0.5" d="M110 805L1317.5 107.85L1317.5 1502.15L110 805Z" fill="white"/>
<path d="M59.3171 696.458C59.2706 723.495 37.9372 745.21 11.8694 745.165C-14.1983 745.12 -35.4568 723.332 -35.4103 696.295C-35.3638 669.258 -14.0304 647.543 12.0374 647.588C38.1051 647.632 59.3637 669.421 59.3171 696.458Z" fill="white" stroke="white" stroke-width="7"/>
<path d="M133.497 716.284C133.469 732.449 120.724 745.365 105.232 745.338C89.7397 745.312 77.0391 732.352 77.0669 716.186C77.0947 700.021 89.8398 687.105 105.332 687.131C120.824 687.158 133.525 700.118 133.497 716.284Z" fill="white" stroke="white" stroke-width="7"/>
<rect x="-24.6504" y="755.978" width="148.403" height="94.7348" rx="4" transform="rotate(0.0986152 -24.6504 755.978)" fill="white"/>
<path d="M111.255 809.086C107.985 807.159 107.971 802.434 111.23 800.487L176.646 761.382C179.973 759.393 184.199 761.782 184.211 765.657L184.44 843.446C184.451 847.321 180.239 849.737 176.9 847.77L111.255 809.086Z" fill="white"/>
<rect x="17.0801" y="842.165" width="65.8237" height="22.1458" transform="rotate(0.0986152 17.0801 842.165)" fill="white"/>
<line y1="-7.5" x2="125.499" y2="-7.5" transform="matrix(-0.0113518 0.999936 -0.999929 -0.0118989 43.3887 859.463)" stroke="white" stroke-width="15"/>
<line y1="-6.5" x2="129.495" y2="-6.5" transform="matrix(-0.38975 0.920921 -0.912881 -0.408225 25.4414 855.743)" stroke="white" stroke-width="13"/>
<line y1="-6.5" x2="128.835" y2="-6.5" transform="matrix(0.397863 0.917445 -0.909049 0.41669 61.3359 863.175)" stroke="white" stroke-width="13"/>
</svg>
