<svg width="57" height="354" viewBox="0 0 57 354" fill="none" xmlns="http://www.w3.org/2000/svg">
<rect x="7" y="4" width="50" height="350" fill="#0195FF"/>
<rect width="50" height="350" fill="white"/>
<path d="M36.8623 43.144C36.8383 43.696 36.7423 44.104 36.7423 44.488C36.6703 44.872 36.6223 45.28 36.4063 45.664C36.2143 46.072 35.9983 46.288 35.8303 46.72C35.5663 47.032 35.4703 47.392 35.0863 47.656C34.8703 47.824 34.6303 48.208 34.1983 48.448L33.1663 49.12C32.6863 49.408 32.3503 49.528 32.0383 49.672C31.5823 49.864 31.2223 50.056 30.8383 50.104C30.5503 50.296 30.3583 50.248 30.1423 50.32C29.8543 50.416 29.5183 50.44 29.2783 50.56C28.7023 50.608 28.1023 50.776 27.6703 50.8C27.2623 50.728 26.9743 50.584 26.9743 50.104C26.7583 49.744 26.6143 49.168 26.5903 48.76C26.4943 48.28 27.0943 48.136 27.3823 48.16C27.7903 48.184 28.0303 47.944 28.4863 47.992C28.8703 48.04 29.1823 47.704 29.6143 47.704C30.0943 47.704 30.3343 47.344 30.7663 47.296C31.1743 47.248 31.5583 46.816 31.8223 46.768C32.2063 46.696 32.3743 46.288 32.7823 46.024C33.1183 45.808 33.2143 45.472 33.4783 45.184C33.7183 44.848 33.9103 44.536 33.9343 44.248C34.0303 43.96 34.1263 43.456 34.1023 43.072C34.0303 42.856 34.1023 42.592 33.9823 42.16C33.9103 41.944 33.8623 41.656 33.5983 41.344C33.4543 41.152 33.4303 40.936 33.0463 40.6C32.8303 40.432 32.7103 40.168 32.3023 39.976C31.9423 39.808 31.6783 39.616 31.2223 39.736C30.9823 39.808 30.8143 39.904 30.6223 40.096C30.2863 40.384 30.3583 40.696 30.0463 40.984C29.8303 41.224 29.7343 41.344 29.6863 41.56C29.5183 41.656 29.5183 41.896 29.2783 42.112C29.1343 42.184 28.9903 42.52 28.8703 42.664C28.7743 42.76 28.7023 42.904 28.4623 43.192C28.0303 43.48 27.9583 43.816 27.5503 44.248C27.2623 44.416 27.1903 44.776 27.0943 45.184C26.9983 45.616 27.2383 45.544 27.1903 45.808C27.3343 45.88 27.2863 46.072 27.2383 46.288C27.2143 46.432 27.1183 46.648 26.9263 46.744C26.5183 46.936 26.4943 47.224 26.1343 47.296C25.9423 47.344 25.6783 47.608 25.4143 47.56C25.1503 47.584 25.1023 47.56 24.9823 47.392C24.8863 47.272 24.2863 47.104 24.0223 47.272C23.8063 47.344 23.7823 47.464 23.4223 47.56C22.9903 47.824 22.5583 47.968 22.1503 48.112C21.6223 48.304 21.3343 48.304 20.6623 48.4C20.2783 48.448 19.7743 48.376 19.2943 48.232C18.8623 48.112 18.5023 47.872 18.2143 47.656C17.9503 47.464 17.7343 47.128 17.5183 46.696C17.3983 46.48 17.3503 46.072 17.3023 45.592C17.3023 45.52 17.2783 45.448 17.2783 45.376C17.2783 44.992 17.3743 44.56 17.5423 44.152C17.6143 43.696 17.8783 43.408 18.0463 43C18.1903 42.712 18.3823 42.28 18.8143 41.872C18.9343 41.704 19.1983 41.56 19.2943 41.344C19.4143 41.104 19.6543 41.104 19.8223 40.816C19.8943 40.696 20.2543 40.576 20.3983 40.336C20.5423 40.072 20.8783 40.048 20.9983 39.88C21.1903 39.64 21.3343 39.688 21.9343 39.328C22.1023 39.232 22.5343 38.968 22.7503 38.896C22.9663 38.728 23.2303 38.296 23.2303 38.032C23.3023 37.648 23.2063 37.312 23.3023 36.856C23.3503 36.472 23.2783 36.328 23.1103 36.136C22.7503 35.728 22.0543 35.992 21.5983 35.92C21.3583 35.92 20.9263 35.944 20.3983 35.896C19.9903 35.92 19.5103 35.752 19.1983 35.728C18.8143 35.68 18.6703 35.32 18.7423 34.936L18.7183 33.976C18.8143 33.592 18.9823 33.328 19.2943 33.28C19.4623 33.28 19.5343 33.256 19.6783 33.328C19.9183 33.448 20.2783 33.28 20.7343 33.424C21.1423 33.544 21.4543 33.424 21.7663 33.472C22.0783 33.592 22.4383 33.4 22.7503 33.472C23.1583 33.568 23.7823 32.92 23.8543 32.632C23.8783 32.128 23.9983 31.864 23.9983 31.528C24.0223 31.072 24.1183 30.808 24.1663 30.256C24.1663 29.896 24.3103 29.536 24.6943 29.536H24.7423C25.1743 29.56 25.5583 29.752 25.9183 29.752C26.2063 29.824 26.5903 29.896 26.9503 29.944C27.1663 29.968 27.4303 30.232 27.3343 30.328C27.4303 30.64 26.9983 30.712 26.7343 31.024C26.5903 31.192 26.4703 31.84 26.4463 32.176C26.3503 32.584 26.7823 32.968 27.0943 32.896C27.3343 32.848 27.5743 32.632 27.9343 32.68C28.3663 32.728 28.4623 32.344 28.8703 32.392C29.1103 32.416 29.2303 32.152 29.5183 32.152C29.7823 32.152 30.3823 31.576 30.8143 31.672C31.0543 31.72 31.4143 31.864 31.4623 32.176C31.6543 32.416 31.7263 32.56 31.8223 32.896C31.8943 33.064 31.9903 33.112 31.9663 33.328C31.9423 33.76 31.5583 33.808 31.2943 34.072C30.8383 34.216 30.4543 34.48 30.3343 34.432C30.0943 34.576 29.6863 34.72 29.3983 34.744L28.4383 35.032C27.9823 35.2 27.7423 35.176 27.4543 35.296C27.1423 35.368 27.0223 35.44 26.7343 35.464C26.4703 35.512 26.0383 35.896 25.9663 36.16C25.7983 36.424 25.8463 36.736 25.7743 37C25.7743 37.36 26.1103 37.792 26.5903 37.6C26.9983 37.432 27.2623 37.576 27.5023 37.432C27.6703 37.336 27.9823 37.336 28.4863 37.288C28.7503 37.264 29.1823 36.904 29.3503 36.376C29.4463 36.112 29.3743 35.872 29.7583 35.752C29.9743 35.68 30.1183 35.728 30.3103 35.776C30.6703 35.944 30.8863 35.992 31.1743 35.992C31.5823 36.184 31.7263 36.136 32.0863 36.256C32.2543 36.376 32.3983 36.352 32.3983 36.568C32.4463 36.952 31.9423 36.952 31.9183 37.192C31.8943 37.36 32.0383 37.504 32.2543 37.6L32.4463 37.672C32.7583 37.792 33.0943 37.816 33.2863 37.984C33.6463 38.032 33.7663 38.344 34.1023 38.392C34.5583 38.464 34.5343 38.848 34.8703 38.896C35.1823 38.944 35.2543 39.28 35.5423 39.472C35.7583 39.616 35.8543 40.048 36.0943 40.288C36.2623 40.456 36.3103 40.816 36.5023 41.176C36.7183 41.56 36.5743 41.728 36.7423 42.136C36.8383 42.568 36.7903 42.88 36.8623 43.144ZM27.8863 39.952C28.0303 39.664 27.7903 39.352 27.3343 39.4C26.8543 39.424 26.4223 39.544 26.0623 39.808C25.8943 39.952 25.7263 40.168 25.6783 40.384C25.5823 40.768 25.7263 41.104 25.6783 41.608C25.7023 42.16 26.1343 42.256 26.3263 42.04C26.4943 41.896 26.5903 41.728 26.8063 41.488C26.9503 41.176 27.0943 41.128 27.2143 40.936C27.3583 40.672 27.6943 40.192 27.8863 39.952ZM23.2543 44.92C23.4943 44.776 23.7343 44.392 23.6143 43.984L23.5183 43.648C23.4223 43.216 23.4463 42.952 23.3503 42.52C23.2783 42.232 23.3263 41.992 23.2543 41.776C23.2063 41.536 22.6543 41.368 22.4383 41.632C22.0783 41.752 21.8863 42.112 21.5263 42.304C21.1663 42.496 21.0943 42.832 20.7583 43.168C20.4943 43.432 20.2303 43.912 20.1583 44.176C19.9423 44.512 19.8943 44.8 19.8703 45.184C19.8463 45.664 20.0623 45.976 20.4943 46.096C20.7103 46.144 20.9503 46.096 21.2863 45.976C21.5023 45.904 21.9103 45.736 22.2223 45.592C22.5823 45.424 23.0623 45.184 23.2543 44.92ZM33.176 69.784C33.2 69.952 33.224 70.264 33.224 70.648C33.224 70.888 33.2 71.176 33.2 71.464C33.2 71.728 33.128 71.968 33.104 72.232C33.056 72.64 32.936 72.976 32.936 73.12C32.912 73.408 32.696 73.528 32.672 73.864C32.504 74.2 32.504 74.392 32.336 74.584C32.288 74.776 32.144 74.992 31.904 75.28C31.712 75.544 31.664 75.688 31.424 75.904C31.16 76.12 30.968 76.36 30.848 76.504C30.752 76.576 30.368 76.984 30.248 77.008C29.936 77.056 29.84 77.392 29.624 77.44C29.408 77.608 29.336 77.728 28.976 77.848C28.664 77.944 28.688 78.112 28.28 78.208C27.944 78.28 27.968 78.448 27.584 78.544C27.344 78.592 27.296 78.76 26.936 78.856C26.624 78.952 26.504 79.072 26.168 79.12C25.904 79.168 25.76 79.312 25.4 79.384C25.088 79.456 24.92 79.552 24.704 79.576C24.632 79.6 24.584 79.6 24.512 79.6C24.152 79.6 23.96 79.312 23.768 78.856C23.648 78.496 23.504 78.376 23.384 78.136C23.288 77.992 23.072 77.704 23.144 77.488C23.264 77.152 23.384 77.224 23.552 77.128C23.648 77.08 23.864 77.056 23.984 77.008C24.44 76.888 24.632 76.864 24.968 76.768C25.352 76.648 25.712 76.48 26.168 76.312C26.72 76.096 27.032 75.808 27.392 75.736C27.92 75.616 28.136 75.16 28.448 75.016C28.736 74.848 28.952 74.56 29.288 74.2C29.552 73.864 29.624 73.6 29.984 73.216C30.224 72.952 30.272 72.448 30.44 72.064C30.584 71.728 30.56 71.08 30.608 70.72C30.584 70.384 30.536 70 30.536 69.76C30.44 69.424 30.368 69.16 30.248 68.872C30.104 68.608 30.08 68.344 29.888 68.056C29.648 67.888 29.744 67.648 29.408 67.36C29.144 67.12 29.168 66.88 28.928 66.784C28.592 66.64 28.496 66.232 28.208 66.136C27.872 66.016 27.728 65.728 27.44 65.632C27.152 65.512 26.912 65.344 26.624 65.272C26.288 65.2 26.12 65.008 25.616 64.936C25.256 64.888 24.968 64.744 24.584 64.768C24.248 64.792 24.344 65.056 24.464 65.176C24.584 65.296 24.704 65.416 24.632 65.608C24.632 65.824 24.32 65.968 24.272 66.088C24.032 66.52 23.888 66.952 23.912 67.192C23.816 67.696 23.624 68.008 23.576 68.392C23.528 68.776 23.336 69.184 23.264 69.544C23.192 69.976 22.952 70.336 22.88 70.696C22.808 71.056 22.52 71.464 22.448 71.824C22.376 72.232 22.208 72.28 22.064 72.736C22.016 73.024 21.68 73.36 21.608 73.696C21.536 73.984 21.176 74.392 21.056 74.608C20.864 74.92 20.744 75.232 20.432 75.472C20.168 75.88 19.904 76 19.784 76.216C19.592 76.552 19.184 76.624 18.968 76.888C18.752 77.152 18.296 77.176 18.056 77.344C17.816 77.512 17.288 77.536 16.64 77.488L16.232 77.44C15.872 77.392 15.44 77.176 15.152 76.936C14.912 76.888 14.6 76.624 14.384 76.36C14.192 76.096 14 75.808 13.88 75.64C13.688 75.328 13.568 74.992 13.496 74.8C13.376 74.584 13.208 74.152 13.232 73.888C13.184 73.552 13.064 73.216 13.064 72.952C13.04 72.784 13.016 72.568 13.016 72.304V71.728C13.016 71.44 13.04 71.104 13.088 70.84C13.184 70.432 13.232 70.12 13.352 69.688C13.448 69.4 13.544 68.896 13.76 68.584C13.952 68.272 14.096 67.768 14.288 67.528C14.48 67.168 14.648 66.88 14.96 66.568C15.104 66.304 15.488 66.016 15.728 65.656C16.016 65.464 16.16 65.176 16.592 64.864C17.024 64.552 17.12 64.336 17.576 64.192C17.816 64.12 17.984 63.856 18.224 63.808C18.584 63.736 18.752 63.472 18.944 63.448C19.304 63.424 19.448 63.184 19.688 63.16C20 63.136 20.192 63.016 20.456 62.92C20.936 62.728 21.584 62.632 22.016 62.584C22.616 62.536 23.024 62.488 23.6 62.488C24.224 62.488 24.536 62.512 25.328 62.584C25.52 62.512 25.808 62.632 26.192 62.728C26.48 62.8 26.768 62.776 27.056 62.944C27.296 62.968 27.584 63.064 27.872 63.208C28.256 63.352 28.52 63.544 28.688 63.544C29 63.592 29.264 63.952 29.48 63.976C29.672 64 29.864 64.264 30.152 64.456C30.416 64.624 30.56 64.936 30.92 65.104C31.256 65.272 31.232 65.608 31.472 65.728C31.664 65.824 31.784 66.232 32 66.448C32.144 66.592 32.216 66.952 32.432 67.216C32.744 67.576 32.672 67.792 32.768 68.032C32.936 68.32 32.888 68.656 32.984 68.896C33.128 69.232 33.056 69.448 33.176 69.784ZM21.512 65.944C21.608 65.416 20.816 64.96 20.432 65.104C20.168 65.104 20 65.272 19.784 65.416C19.376 65.512 19.448 65.656 19.16 65.776C18.824 65.968 18.728 66.064 18.44 66.352C18.2 66.592 17.888 66.88 17.744 67C17.648 67.24 17.36 67.408 17.192 67.744C17.024 68.104 16.856 68.248 16.688 68.536C16.592 68.728 16.4 69.112 16.232 69.4C16.136 69.712 15.992 69.976 15.92 70.288C15.752 70.624 15.848 70.936 15.728 71.2C15.584 71.488 15.656 71.824 15.656 72.112C15.536 72.4 15.752 72.568 15.704 72.928C15.68 73.264 15.848 73.528 15.896 73.84C16.088 74.224 16.112 74.344 16.328 74.512C16.472 74.704 16.712 74.848 17 74.824C17.312 74.8 17.48 74.728 17.696 74.584C17.936 74.416 18.056 74.224 18.248 74.032C18.536 73.744 18.632 73.408 18.776 73.312C18.944 73.192 18.944 72.76 19.136 72.616C19.424 72.4 19.448 71.992 19.688 71.56L19.904 71.08C20.096 70.768 20.264 70 20.456 69.664C20.624 69.376 20.648 68.872 20.792 68.656C20.936 68.44 20.864 68.128 21.032 67.864C21.224 67.552 21.2 67.288 21.296 66.832C21.368 66.52 21.464 66.256 21.512 65.944ZM24.584 99.784C23.768 99.808 24.08 100.144 24.392 100.216C24.584 100.264 24.752 100.408 24.752 100.552C24.752 100.912 24.536 100.84 24.32 101.008C24.2 101.152 24.128 101.272 24.08 101.536C24.128 101.752 24.248 102.016 24.68 102.016C24.968 102.016 25.352 102.016 25.856 101.992C26.408 101.944 26.936 102.064 27.44 101.992C28.088 101.992 28.736 102.016 29.24 101.992C30.008 102.04 30.344 101.968 30.896 101.896C31.232 101.776 31.472 101.776 31.568 101.824C31.664 101.872 31.832 101.872 31.952 102.04C32.336 102.28 32.6 102.496 32.912 102.808C33.08 102.976 33.152 103.168 33.2 103.312C33.2 103.336 33.224 103.36 33.224 103.384C33.224 103.552 33.056 103.72 32.912 103.816C32.648 104.008 32.696 104.248 32.6 104.632C32.432 105.016 32.36 105.4 32.384 105.664C32.264 106.12 32.12 106.432 32.168 106.72L31.952 107.512C31.928 107.704 31.784 107.92 31.712 108.256C31.448 108.664 31.208 109.192 31.04 109.504C30.752 109.912 30.392 110.2 30.008 110.416C29.504 110.704 29.144 110.704 28.712 110.848C28.304 110.944 27.752 111.016 27.32 110.992C27.104 111.04 26.816 111.064 26.528 111.064C26.312 111.064 26.096 111.04 25.928 110.992C25.856 111.016 25.808 111.016 25.736 111.016C25.424 111.016 25.088 110.8 25.04 110.392C24.968 110.032 24.968 109.816 24.872 109.384C24.896 109.264 24.776 109.072 24.752 108.832C24.728 108.616 24.992 108.256 25.256 108.328C25.712 108.28 26.024 108.4 26.552 108.352C26.936 108.328 27.44 108.352 27.872 108.232C28.184 108.136 28.736 107.944 28.928 107.728C28.976 107.512 29.336 107.368 29.36 107.008C29.552 106.768 29.6 106.528 29.72 106.192C29.816 105.904 29.84 105.664 29.888 105.328C29.816 104.992 29.792 104.488 29.384 104.44C29.024 104.272 28.568 104.464 28.304 104.344C27.776 104.296 27.056 104.248 26.576 104.344C26.144 104.248 25.736 104.464 25.376 104.344C25.064 104.344 24.632 104.44 24.2 104.344C23.576 104.344 23.144 104.584 22.928 104.92C22.736 105.352 22.52 105.616 22.232 105.808C22.04 105.952 21.968 106.24 21.68 106.504C21.584 106.84 21.272 106.96 21.08 107.152C20.888 107.248 20.552 107.68 20.432 107.752C20.24 108.016 20 108.136 19.736 108.304C19.376 108.544 19.16 108.736 19.016 108.808C18.68 109.096 18.464 109.12 18.272 109.264C17.864 109.552 17.696 109.624 17.264 109.768C16.856 109.84 16.472 110.032 16.232 110.2C15.848 110.344 15.608 110.368 15.176 110.56C14.816 110.8 14.384 110.896 14.096 110.896C13.976 110.872 13.832 110.824 13.64 110.968C13.256 110.92 13.064 110.656 12.992 110.464C12.8 110.248 12.584 109.576 12.536 109.216C12.56 108.616 12.944 108.664 13.184 108.592C13.472 108.52 13.952 108.352 14.216 108.304C14.552 108.208 14.984 108.136 15.224 107.944C15.536 107.92 15.752 107.728 16.208 107.536C16.424 107.464 16.784 107.176 17.144 107.032C17.336 106.768 17.816 106.744 18.032 106.456C18.224 106.312 18.512 106.024 18.848 105.808C18.944 105.616 19.16 105.448 19.352 105.328C19.808 104.872 19.688 104.344 18.92 104.344C18.704 104.296 18.488 104.344 18.272 104.344C17.864 104.368 17.6 104.344 17.24 104.344C16.832 104.344 16.472 104.248 16.232 104.344C15.704 104.416 15.248 104.344 14.864 104.368C14.36 104.392 14 104.464 13.472 104.368C12.848 104.344 12.824 103.984 12.824 103.576C12.824 103.312 12.776 103.024 12.824 102.736C12.728 102.328 13.112 101.92 13.472 101.92C14 101.824 14.312 102.016 14.864 101.944H17.528C17.84 102.04 18.272 101.92 18.824 101.944C19.232 101.992 20.048 102.112 20.504 101.992C20.96 102.016 21.44 101.824 21.536 101.488C21.608 101.224 21.656 100.696 21.728 100.48C21.824 100.096 21.608 99.784 21.32 99.784C20.768 99.784 20.552 99.664 20.072 99.784C19.544 99.904 18.992 99.688 18.536 99.784C18.032 99.832 17.312 100 17.288 100.576C17.312 101.152 17 101.056 16.376 101.08C16.136 101.056 15.8 101.176 15.536 101.08C14.984 101.128 14.72 100.792 14.768 100.312C14.696 99.784 14.648 99.088 14.768 98.464C14.768 98.008 14.792 97.336 14.768 96.856C14.744 96.4 14.672 95.824 14.768 95.248C14.768 94.696 14.84 94.168 14.768 93.64C14.744 93.136 14.72 92.464 14.768 92.032C14.864 91.696 14.72 91.096 14.744 90.592C14.864 90.064 15.152 89.872 15.536 89.872H15.608C15.752 89.944 16.16 89.92 16.376 89.896C16.448 89.872 16.52 89.872 16.568 89.872C16.904 89.872 17.168 89.992 17.432 89.896C17.72 89.944 18.08 89.872 18.44 89.872C18.56 89.872 18.704 89.872 18.824 89.896C19.208 89.944 19.592 89.896 19.976 89.896H20.216C20.6 89.944 20.984 89.872 21.32 89.872C21.416 89.872 21.512 89.872 21.608 89.896H21.8C22.16 89.896 22.592 89.968 23.024 89.896C23.36 89.992 23.816 89.896 24.248 89.896H24.44C24.728 89.992 25.304 89.896 25.664 89.896H25.832C26.216 89.992 26.6 89.896 27.08 89.896H27.224C27.44 89.848 27.656 89.848 27.896 89.848C28.112 89.848 28.376 89.848 28.616 89.896L29.648 89.872C30.032 89.968 30.416 89.872 30.68 89.872C30.968 89.944 31.376 90.184 31.304 90.616C31.208 91.168 31.208 91.6 31.28 92.032C31.328 92.584 31.328 92.968 31.28 93.52C31.328 93.928 31.184 94.624 31.28 95.008C31.232 95.608 31.328 96.016 31.28 96.52C31.256 96.952 31.376 97.408 31.28 97.984C31.376 98.536 31.328 99.112 31.328 99.664C31.328 100.24 30.896 100.672 30.512 100.552C30.32 100.6 29.888 100.6 29.672 100.552C29.528 100.576 29.048 100.48 28.976 100.312C28.904 100.144 28.712 100.048 28.472 100C28.184 99.928 27.752 99.88 27.536 99.784C26.96 99.688 26.336 99.76 25.976 99.784C25.424 99.784 24.944 99.76 24.584 99.784ZM17.216 92.872C17.24 93.136 17.24 93.256 17.216 93.304C17.24 93.592 17.6 93.76 18.032 93.736C18.296 93.784 19.184 93.784 19.52 93.712C19.928 93.784 20.36 93.808 20.768 93.712C21.344 93.76 21.656 93.592 21.776 93.304C21.848 93.112 21.872 92.824 21.8 92.608C21.704 92.344 21.392 92.248 20.96 92.224C20.528 92.176 20.216 92.32 19.904 92.224C19.64 92.296 19.16 92.248 18.92 92.224C18.632 92.128 18.392 92.224 18.008 92.2C17.384 92.224 17.192 92.584 17.216 92.872ZM24.248 92.944C24.368 93.136 24.152 93.256 24.248 93.376C24.176 93.592 24.8 93.664 25.28 93.712C25.712 93.76 26.168 93.616 26.528 93.712C26.912 93.688 27.344 93.712 27.776 93.712C28.232 93.784 28.928 93.664 28.832 93.376C28.904 93.232 28.928 93.112 28.832 92.944C28.88 92.56 28.544 92.224 28.112 92.224C27.776 92.248 27.392 92.176 27.128 92.224C26.792 92.128 26.432 92.344 26.144 92.224C25.76 92.296 25.376 92.176 25.112 92.224C24.704 92.248 24.32 92.728 24.248 92.944ZM21.824 96.904C21.872 96.712 21.8 96.64 21.824 96.472C21.776 96.088 21.248 95.992 20.768 95.992C20.384 96.04 19.808 95.896 19.52 95.992C19.16 95.992 18.272 95.992 18.008 95.968C17.552 96.04 17.144 96.352 17.216 96.616C17.264 96.88 17.192 96.952 17.216 97.072C17.24 97.264 17.792 97.552 18.272 97.432C18.704 97.456 19.184 97.48 19.52 97.432C19.904 97.36 20.384 97.456 20.768 97.432C21.296 97.384 21.728 97.288 21.824 96.904ZM28.832 97C28.928 96.928 28.88 96.64 28.832 96.472C28.832 96.04 28.28 96.064 27.776 95.992C27.464 95.896 26.936 96.088 26.528 95.992H25.28C24.8 95.992 24.248 96.4 24.248 96.712V97.024C24.248 97.36 24.872 97.552 25.28 97.432C25.544 97.432 26.144 97.384 26.528 97.432C26.936 97.384 27.488 97.432 27.776 97.432C28.16 97.432 28.76 97.336 28.832 97ZM30.08 120.64C29.792 120.496 29.672 120.184 29.72 119.992C29.792 119.776 29.816 119.656 29.936 119.512C30.296 119.08 30.368 119.104 30.656 119.032C30.824 119.032 31.088 119.272 31.52 119.416C31.688 119.632 32.072 119.824 32.264 119.992C32.432 120.256 32.816 120.472 32.96 120.592C33.2 120.808 33.368 121.072 33.392 121.36C33.416 121.552 33.296 121.6 33.224 121.792C33.176 121.888 33.032 121.936 32.936 122.104C32.744 122.32 32.552 122.44 32.384 122.44C31.952 122.44 31.736 121.936 31.424 121.72C31.136 121.624 30.968 121.216 30.728 121.096L30.08 120.64ZM26.288 127.144C26.36 127.6 26.504 128.128 26.48 128.464C26.504 129.088 26.48 129.52 26.432 129.952C26.36 130.576 26.264 130.96 26.264 131.44C26.216 131.944 26.024 132.472 26 132.928C25.832 133.36 25.784 134.008 25.64 134.368C25.616 134.8 25.328 134.992 25.352 135.4C25.328 135.664 25.04 136.216 24.968 136.432C24.728 136.696 24.68 137.2 24.488 137.416C24.344 137.8 23.984 138.136 23.816 138.28C23.6 138.496 23.456 138.544 23.192 138.784C22.88 139.048 22.76 139.096 22.472 139.096C21.968 139.192 21.608 139.336 21.2 139.336C21.104 139.336 21.008 139.336 20.912 139.312C20.792 139.336 20.648 139.336 20.504 139.336C20.288 139.336 20.048 139.312 19.736 139.24C19.304 139.264 19.04 139.168 18.68 139.048C18.416 138.952 18.248 138.736 18.272 138.376C18.344 138.016 18.272 137.68 18.344 137.272C18.344 136.888 18.368 136.264 19.136 136.432C19.592 136.576 19.784 136.552 20.144 136.648C20.504 136.744 20.648 136.624 20.984 136.696C21.248 136.744 21.584 136.504 21.776 136.48C21.968 136.456 22.088 136.264 22.304 135.976C22.496 135.808 22.52 135.64 22.688 135.256C22.832 135.064 22.856 134.656 22.952 134.392C23.096 134.032 23.144 133.456 23.312 133.048C23.456 132.568 23.456 131.992 23.576 131.656C23.72 131.248 23.768 130.816 23.768 130.24C23.912 129.784 23.888 129.208 23.84 128.848C23.864 128.488 23.816 128.176 23.672 127.912C23.528 127.672 23.264 127.432 22.88 127.48C22.736 127.408 22.304 127.504 21.872 127.528C21.08 127.696 21.032 127.768 20.816 127.936C20.48 128.2 20.312 128.56 20.312 128.776C20.12 129.136 20.144 129.208 20.072 129.376C19.856 129.664 19.784 129.856 19.76 130.168C19.568 130.456 19.568 130.624 19.448 130.96C19.184 131.296 19.136 131.68 18.968 132.016C18.8 132.376 18.536 132.784 18.488 133.072C18.296 133.36 18.176 133.744 17.984 134.104C17.768 134.464 17.72 134.848 17.48 135.136C17.36 135.448 17.024 135.808 16.928 136.168C16.808 136.432 16.592 136.672 16.568 136.816C16.328 137.152 16.232 137.344 16.112 137.608C15.92 137.824 15.8 138.064 15.68 138.28C15.464 138.472 15.368 138.736 15.176 138.904C15.056 139.048 14.792 139.312 14.624 139.312H14.552C14.168 139.312 14.072 139.12 13.976 139.024C13.688 138.736 13.496 138.712 13.136 138.496C12.848 138.376 12.776 138.112 12.776 137.896C12.776 137.584 13.088 137.368 13.112 137.224C13.184 136.912 13.352 136.888 13.568 136.624C13.832 136.288 13.904 136.072 14.12 135.856C14.312 135.736 14.336 135.328 14.6 135.088C14.864 134.896 14.912 134.488 15.152 134.272C15.464 133.984 15.368 133.624 15.608 133.456C15.8 133.312 15.872 132.76 16.088 132.472C16.28 132.208 16.472 131.8 16.592 131.416C16.808 131.104 16.928 130.696 17.072 130.408C17.24 130.048 17.36 129.76 17.432 129.4C17.648 128.872 17.12 128.32 16.856 128.416C16.64 128.416 16.376 128.464 16.16 128.536C15.872 128.536 15.608 128.656 15.224 128.704C14.984 128.728 14.864 128.824 14.504 128.848C14.336 128.848 14.048 128.968 13.928 128.944C13.592 128.992 13.256 128.704 13.208 128.2C13.064 127.912 13.016 127.528 13.064 127.144C12.92 126.52 13.4 126.352 13.832 126.28C14.264 126.16 14.48 126.304 14.96 126.208C15.464 126.112 15.632 126.208 16.136 126.064C16.4 125.992 16.64 126.112 17.072 125.944C17.432 125.944 17.696 125.944 18.152 125.8C18.464 125.776 18.968 125.2 19.04 124.744C19.232 124.336 19.328 124.264 19.328 123.928C19.328 123.616 19.52 123.4 19.592 122.968C19.688 122.464 19.856 122.272 19.808 121.888C19.784 121.648 20 121.432 19.976 121.072C19.952 120.688 20.24 120.232 20.648 120.208C21.008 120.184 21.392 120.4 21.8 120.4C22.184 120.424 22.376 120.544 22.784 120.592C22.952 120.64 23.168 120.712 23.168 120.952C23.12 121.432 22.64 121.408 22.568 121.6C22.424 121.744 22.304 122.056 22.256 122.536C22.112 123.016 21.968 123.256 21.992 123.52C21.92 123.952 21.752 124.12 21.704 124.384C21.608 124.816 22.184 125.248 22.376 125.224C22.784 125.152 23.048 125.104 23.456 125.104C23.888 125.104 24.008 125.248 24.512 125.344C24.896 125.464 25.232 125.656 25.544 126.04C25.976 126.304 26.144 126.688 26.288 127.144ZM28.256 122.824C27.992 122.776 27.824 122.416 27.848 122.152C27.872 121.912 27.896 121.936 28.04 121.72C28.304 121.36 28.448 121.216 28.784 121.192C29.096 121.12 29.408 121.408 29.648 121.576C29.84 121.696 30.128 122.008 30.392 122.176C30.512 122.296 30.8 122.584 31.088 122.752C31.4 123.04 31.568 123.304 31.52 123.52C31.544 123.688 31.4 123.952 31.304 124.048C31.304 124.144 31.184 124.096 31.088 124.288C30.944 124.6 30.584 124.6 30.44 124.576C30.08 124.552 29.984 124.144 29.576 123.904L29.144 123.496C28.904 123.352 28.616 123.136 28.256 122.824ZM34.136 129.496C34.4 129.76 34.52 129.88 34.52 130.24C34.52 130.6 34.28 130.72 34.184 130.84C33.776 131.128 33.632 131.392 33.248 131.68C33.08 131.944 32.84 132.04 32.648 131.968C32.312 131.848 32.192 131.704 32 131.392C31.808 131.08 31.64 130.816 31.328 130.432C30.992 130.144 30.872 129.712 30.536 129.496C30.152 129.28 30.152 128.848 29.696 128.656C29.408 128.536 29.288 128.248 28.904 128.056C28.544 127.864 28.424 127.696 28.16 127.456C27.896 127.36 27.92 127.288 27.656 127.12C27.512 127.072 27.176 126.904 27.272 126.52C27.32 126.208 27.56 126.04 27.608 125.824C27.656 125.656 27.824 125.704 27.968 125.368C28.04 125.2 28.472 124.84 28.64 124.888C28.928 124.864 29.048 124.96 29.36 125.152C29.72 125.32 29.96 125.584 30.32 125.8C30.608 125.944 30.968 126.496 31.208 126.592C31.616 126.76 31.592 126.976 31.784 127.024C31.928 127.072 32.096 127.384 32.408 127.576C32.768 127.792 32.864 128.248 33.32 128.488C33.728 128.728 33.92 129.256 34.136 129.496ZM18.872 149.392C18.92 149.848 18.488 149.752 18.392 150.112C18.368 150.472 18.344 150.832 18.416 151.12C18.296 151.408 18.464 151.888 18.416 152.104C18.368 152.44 18.392 152.776 18.416 153.136C18.344 153.544 18.44 153.736 18.416 154.168C18.488 154.576 18.368 154.888 18.416 155.2C18.368 155.584 18.296 155.824 18.416 156.232C18.296 156.52 18.296 156.832 18.416 157.264C18.32 157.624 18.344 157.888 18.416 158.296C18.416 158.728 18.296 159.4 18.392 159.76C18.488 160.216 18.32 160.84 18.344 161.248C18.224 161.704 18.2 162.16 18.224 162.712C18.128 163.144 18.056 163.72 18.032 164.2C17.912 164.512 17.84 164.8 17.864 165.016C17.696 165.4 17.816 165.688 17.648 165.832C17.528 166.168 17.552 166.432 17.336 166.6C17.192 166.792 17.192 167.056 17 167.368C16.808 167.56 16.64 167.944 16.592 168.088C16.448 168.424 16.352 168.688 16.112 168.784C15.848 169.072 15.752 169.36 15.608 169.456C15.512 169.624 15.272 169.84 15.032 170.08C14.792 170.416 14.408 170.824 14.024 170.776C13.664 170.752 13.424 170.368 13.232 170.152C12.968 169.984 12.44 169.504 12.536 169.144C12.512 168.808 12.704 168.544 12.944 168.448C13.208 168.088 13.568 167.92 13.808 167.536C14.072 167.152 14.336 166.936 14.504 166.528C14.768 166.072 14.792 165.76 15.056 165.424C15.176 165.136 15.272 164.776 15.44 164.248C15.44 163.936 15.56 163.528 15.68 163C15.608 162.616 15.704 162.088 15.824 161.728C15.824 161.2 15.992 160.648 15.944 160.048C15.872 159.568 15.896 158.968 15.992 158.344C16.064 157.888 16.016 157.6 15.992 157.288C16.016 157.072 15.992 156.568 15.992 156.256C15.992 155.968 16.016 155.44 15.992 155.2C15.92 154.744 16.064 154.456 15.992 154.144C15.872 153.712 15.944 153.52 15.992 153.04C15.896 152.608 15.872 152.248 15.968 151.912C16.064 151.432 15.896 151.264 15.944 150.784C15.968 150.352 15.872 150.064 15.944 149.632C15.944 149.248 16.16 148.984 16.472 148.984C16.52 148.984 16.568 148.984 16.616 149.008H16.784C17.384 149.008 17.84 149.128 18.392 149.104C18.584 149.128 18.824 149.152 18.872 149.392ZM20.552 156.472C20.48 156.304 20.624 156.208 20.552 155.992C20.48 155.68 20.72 155.272 21.224 155.224C21.92 155.152 22.448 155.32 23.024 155.224C23.504 155.176 24.224 155.248 24.728 155.224C25.4 155.176 25.808 155.248 26.432 155.224C26.912 155.296 27.752 155.248 28.232 155.224C28.592 155.248 29.048 155.248 29.312 155.176C29.6 155.128 29.792 155.104 29.768 154.672C29.72 154.24 28.808 154.48 28.232 154.36C27.584 154.264 27.032 154.456 26.432 154.36C25.88 154.312 25.328 154.456 24.728 154.36C24.248 154.312 23.576 154.336 23.024 154.36C22.424 154.288 21.704 154.504 21.224 154.36C20.816 154.432 20.552 153.952 20.552 153.592C20.552 153.352 20.504 153.28 20.552 153.136C20.456 152.776 20.744 152.344 21.224 152.368C21.872 152.488 22.352 152.368 23.024 152.368C23.552 152.464 24.128 152.44 24.728 152.368C25.208 152.32 25.784 152.464 26.432 152.368C26.936 152.32 27.728 152.488 28.232 152.368C28.544 152.296 29.168 152.392 29.432 152.368C29.648 152.344 29.744 152.176 29.744 151.864C29.744 151.648 29.312 151.432 29.072 151.504C28.52 151.552 27.968 151.6 27.56 151.504C27.056 151.456 26.456 151.552 26.048 151.504C25.424 151.576 25.112 151.456 24.536 151.504C23.984 151.624 23.552 151.528 23.024 151.504C22.352 151.528 21.704 151.552 21.224 151.504C20.84 151.48 20.552 151.36 20.552 150.856C20.528 150.712 20.576 150.328 20.552 150.064C20.528 149.656 20.816 149.536 21.224 149.488C21.872 149.392 22.496 149.608 23.024 149.488C23.6 149.608 24.176 149.584 24.632 149.488C25.136 149.416 25.712 149.608 26.24 149.488C26.672 149.392 27.368 149.464 27.848 149.488C28.376 149.464 28.808 149.416 29.432 149.488C29.696 149.512 30.2 149.416 30.536 149.488C30.8 149.56 31.232 149.44 31.664 149.488C32.192 149.536 32.24 149.92 32.288 150.256C32.192 150.76 32.168 151.216 32.264 151.648C32.312 152.248 32.24 152.8 32.264 153.448C32.36 153.952 32.264 154.72 32.264 155.224C32.24 155.92 32.216 156.496 32.288 157C32.24 157.576 31.976 157.696 31.496 157.672C31.136 157.648 30.848 157.696 30.632 157.672C30.344 157.648 30.104 157.672 29.912 157.456C29.768 157.288 29.24 157.216 28.616 157.24C28.256 157.24 27.968 157.192 27.536 157.24C27.152 157.144 26.816 157.168 26.456 157.24C25.808 157.168 25.328 157.288 24.728 157.24C24.104 157.336 23.672 157.312 23.024 157.24C22.544 157.216 21.872 157.24 21.224 157.24C20.672 157.288 20.672 156.832 20.552 156.472ZM13.112 161.872C12.608 161.92 12.344 161.776 12.32 161.2C12.392 160.768 12.368 160.264 12.32 159.736C12.296 159.568 12.272 159.4 12.272 159.256C12.272 158.944 12.32 158.632 12.32 158.296C12.296 158.152 12.296 158.032 12.296 157.888C12.296 157.432 12.368 156.952 12.32 156.592C12.296 156.448 12.272 156.304 12.272 156.16C12.272 155.752 12.344 155.32 12.32 154.864C12.392 154.288 12.32 154 12.32 153.4C12.32 152.968 12.32 152.368 12.296 151.912C12.296 151.432 12.584 151.216 12.944 151.264C13.208 151.24 13.568 151.264 13.904 151.312C14.216 151.36 14.528 151.384 14.792 151.432C15.176 151.504 15.248 151.768 15.08 151.936C14.816 152.104 14.744 152.248 14.768 152.368C14.792 152.584 14.648 152.992 14.72 153.616C14.624 154.096 14.72 154.672 14.768 154.864C14.696 155.416 14.816 155.92 14.768 156.592C14.672 157.24 14.72 157.816 14.768 158.296C14.744 158.776 14.648 159.328 14.768 159.736C14.768 160.168 14.816 160.72 14.768 161.2C14.768 161.776 14.288 161.944 13.976 161.872C13.712 161.824 13.304 161.872 13.112 161.872ZM33.92 161.56C33.92 161.608 33.944 161.656 33.944 161.704C33.944 162.16 33.512 162.232 33.152 162.232C32.912 162.28 32.864 162.184 32.48 162.256C32.288 162.304 32.24 162.496 32.096 162.64C31.904 162.832 32.048 163.36 32 163.864C31.904 164.464 31.928 165.112 32 165.616C32.048 166.072 31.976 166.312 32.024 166.696C32.096 167.128 32.024 167.296 32.048 167.752C32.072 168.352 31.976 168.688 31.784 168.904C31.664 169.216 31.28 169.48 31.136 169.576C30.752 169.816 30.416 169.912 30.152 169.84C29.744 169.888 29.36 169.936 28.952 169.912C28.568 169.888 28.184 169.72 28.136 169.288C28.136 168.928 28.016 168.424 27.944 167.944C27.92 167.728 28.04 167.44 28.496 167.44C28.976 167.536 29.336 167.512 29.48 167.176L29.528 166.936C29.624 166.528 29.48 165.952 29.552 165.52C29.456 165.112 29.552 164.872 29.552 164.56C29.6 164.152 29.36 163.84 28.832 163.84C28.544 163.744 28.376 163.84 28.136 163.84C27.776 163.936 27.584 164.08 27.512 164.56C27.488 164.968 27.536 165.232 27.488 165.592C27.584 165.832 27.512 166.336 27.536 166.6C27.56 166.936 27.608 167.32 27.584 167.512C27.536 168.04 27.632 168.352 27.608 168.952C27.512 169.528 27.632 169.816 27.584 170.416C27.584 170.8 27.32 171.112 26.936 171.112C26.888 171.112 26.84 171.088 26.792 171.088C26.6 171.112 26.432 171.112 26.264 171.112C26.144 171.112 26.048 171.112 25.928 171.088C25.856 171.112 25.784 171.112 25.712 171.112C25.328 171.112 25.184 170.848 25.136 170.392C25.112 169.816 25.232 169.384 25.136 168.928C25.088 168.448 25.184 168.064 25.136 167.512C25.232 167.224 25.184 166.768 25.136 166.528C25.16 166.12 25.04 165.88 25.136 165.544C25.16 165.304 25.16 164.704 25.16 164.416C25.136 164.032 24.896 163.84 24.656 163.84C24.512 163.888 24.224 163.768 24.032 163.84C23.576 163.864 23.336 163.96 23.336 164.56C23.408 164.992 23.312 165.472 23.336 165.904C23.288 166.264 23.384 166.816 23.336 167.272C23.384 167.824 23.24 168.448 23.336 169.12C23.36 169.576 22.976 169.84 22.568 169.888C22.352 169.888 22.04 169.912 21.656 169.888C21.104 169.84 20.84 169.552 20.888 169.12C20.792 168.592 20.936 167.896 20.888 167.272C20.912 166.672 20.864 166.216 20.888 165.568C20.792 165.04 20.888 164.416 20.888 163.864C20.96 163.432 20.864 162.952 20.864 162.496C20.864 161.872 21.44 161.8 21.824 161.824C22.04 161.776 22.352 161.776 22.568 161.824C22.736 161.776 23.096 161.704 23.552 161.704C23.84 161.8 24.08 161.704 24.416 161.704C24.728 161.824 24.824 161.656 25.064 161.44C25.256 161.272 25.208 160.72 25.136 160.552C24.92 160.096 24.272 160.312 23.576 160.264C23 160.24 22.304 160.384 21.776 160.264C21.176 160.288 21.128 160.384 21.032 160.864C21.104 161.152 21.032 161.248 21.056 161.488C21.2 161.92 20.696 162.256 20.36 162.232C20.048 162.256 19.784 162.16 19.544 162.208C19.136 162.256 18.848 161.992 18.776 161.488C18.632 161.368 18.728 161.056 18.776 160.744C18.68 160.36 18.704 160.144 18.776 159.64C18.68 159.352 18.728 159.04 18.752 158.728C18.776 158.392 18.992 158.176 19.4 158.104C19.808 158.152 20 158.128 20.456 158.104C20.72 158.08 21.128 158.008 21.488 158.104C21.92 158.08 22.28 158.248 22.52 158.128C22.832 158.176 23.24 158.056 23.552 158.152C24.032 158.056 24.392 158.056 24.944 158.152C25.352 158.248 25.832 158.248 26.336 158.152C26.912 158.056 27.224 158.128 27.728 158.152C28.088 158.272 28.592 158.152 29.12 158.152C29.528 158.104 29.792 158.152 30.152 158.128C30.584 158.176 30.824 158.224 31.184 158.104C31.4 158.152 31.784 158.176 32.216 158.104C32.528 158.032 32.816 157.984 33.272 158.104C33.584 158.056 33.944 158.32 33.944 158.632C33.944 158.656 33.92 158.68 33.92 158.728C33.872 159.088 33.848 159.328 33.92 159.64C33.944 159.712 33.944 159.784 33.944 159.856C33.944 160.144 33.848 160.384 33.92 160.768C33.896 160.888 33.896 160.984 33.896 161.08C33.896 161.272 33.92 161.416 33.92 161.56ZM31.448 161.632C31.64 161.512 31.544 161.032 31.544 160.864C31.472 160.408 31.448 160.312 30.92 160.264C30.296 160.264 29.6 160.312 29.12 160.264C28.832 160.336 28.424 160.144 28.136 160.264C27.776 160.408 27.584 160.552 27.584 160.792C27.536 160.96 27.56 161.224 27.584 161.392C27.632 161.632 27.944 161.8 28.376 161.704C28.808 161.8 29.12 161.632 29.336 161.704C29.6 161.824 30.08 161.704 30.344 161.704C30.752 161.8 31.184 161.8 31.448 161.632ZM31.328 191.968C31.328 192.424 31.232 192.76 31.232 193.072C31.208 193.504 31.136 193.912 30.944 194.2C30.872 194.536 30.584 194.944 30.464 195.256C30.344 195.64 30.008 195.856 29.768 196.144C29.432 196.576 29.216 196.72 28.76 197.032C28.496 197.224 28.376 197.44 28.136 197.44C27.92 197.704 27.776 197.704 27.488 197.848L26.792 198.208C26.456 198.304 26.312 198.376 26.12 198.496C25.424 198.736 25.184 198.736 24.848 198.88C24.608 198.976 24.248 198.976 24.008 199.096C23.72 199.24 23.384 199.216 23.216 199.312C22.952 199.48 22.568 199.36 22.304 199.504C22.016 199.648 21.752 199.576 21.488 199.672C21.416 199.696 21.32 199.696 21.248 199.696C20.912 199.696 20.648 199.504 20.624 199.216C20.576 198.976 20.384 198.76 20.408 198.616C20.336 198.448 20.072 197.992 20.072 197.68C20.072 197.392 20.168 197.176 20.504 197.176C20.96 197.128 21.296 197.032 21.56 197.008C21.824 197.056 22.28 196.936 22.52 196.84L23.552 196.6C23.84 196.576 24.2 196.36 24.608 196.288C25.016 196.24 25.328 195.952 25.664 195.904C26 195.736 26.264 195.592 26.648 195.424C26.864 195.28 27.296 195.112 27.512 194.8C27.8 194.656 27.944 194.416 28.184 194.032C28.448 193.768 28.472 193.432 28.64 193.12C28.832 192.76 28.808 192.28 28.832 191.872C28.88 191.176 28.616 191.104 28.568 190.648C28.52 190.288 28.136 189.976 27.896 189.736C27.584 189.424 27.344 189.28 26.84 189.184C26.552 189.088 25.952 189.064 25.496 188.992C25.088 188.968 24.536 189.016 23.984 189.136C23.576 189.352 22.976 189.352 22.52 189.52C22.304 189.544 22.112 189.688 21.8 189.76C21.632 189.88 21.368 190 21.08 190.048C20.864 190.072 20.6 190.288 20.384 190.36C20.144 190.528 19.832 190.48 19.688 190.696C19.4 190.744 19.016 191.08 18.872 191.104C18.68 191.176 18.32 191.464 18.032 191.512C17.672 191.728 17.408 191.824 17.216 191.944C16.808 192.136 16.784 192.184 16.4 192.376C16.136 192.592 16.04 192.568 15.776 192.592C15.464 192.616 15.272 192.28 15.128 192.064C15.032 191.68 14.696 191.32 14.648 191.032C14.672 190.864 14.552 190.768 14.552 190.648V190.6C14.552 190.384 14.744 190.096 15.032 190C15.368 189.88 15.656 189.736 16.232 189.544C16.472 189.472 16.976 189.232 17.216 189.112C17.624 188.872 17.984 188.824 18.224 188.68C18.416 188.632 18.896 188.464 19.088 188.32C19.376 188.32 19.616 188.176 19.976 187.96C20.168 187.888 20.48 187.768 20.864 187.624C21.248 187.576 21.44 187.576 21.752 187.336C22.064 187.096 22.448 187.264 22.664 187.072C22.832 186.928 23.36 186.976 23.6 186.88C23.936 186.736 24.224 186.856 24.536 186.76C24.632 186.736 24.704 186.712 24.8 186.712C24.968 186.712 25.112 186.736 25.28 186.736C25.352 186.736 25.424 186.736 25.496 186.712C25.544 186.712 25.616 186.688 25.664 186.688C25.976 186.688 26.264 186.832 26.672 186.808C27.032 186.784 27.344 187.024 27.776 187.048C28.16 187.072 28.352 187.24 28.76 187.432C29.096 187.576 29.336 187.744 29.624 188.008C29.888 188.32 30.104 188.512 30.344 188.752C30.584 189.136 30.8 189.328 30.872 189.64C31.04 189.88 31.04 190.336 31.208 190.72C31.328 190.984 31.328 191.32 31.328 191.656V191.968ZM31.88 213.592C32.024 213.688 32.096 213.88 32.096 214.096V214.192C32.072 214.528 31.592 214.528 31.376 214.456C30.8 214.504 30.488 214.48 30.032 214.6C29.552 214.744 29.192 214.888 28.712 214.864C28.184 214.984 27.728 215.152 27.44 215.32C27.104 215.584 26.648 215.824 26.216 215.992C25.928 216.112 25.76 216.4 25.472 216.544C25.208 216.64 24.944 216.952 24.704 217.216C24.392 217.432 24.152 217.72 24.032 217.912C23.624 218.2 23.504 218.56 23.36 218.656C23.12 219.016 23.048 219.304 22.928 219.52C22.664 219.88 22.736 220.048 22.568 220.408C22.448 220.648 22.304 221.056 22.304 221.32C22.28 221.776 22.232 222.088 22.232 222.304C22.184 222.736 22.352 222.976 22.4 223.408C22.568 223.864 22.568 224.128 22.904 224.368C23.12 224.704 23.36 224.992 23.624 225.184C23.864 225.376 24.272 225.712 24.56 225.76C24.92 225.808 25.232 226.192 25.712 226.216C26.264 226.24 26.504 226.48 26.936 226.504C27.296 226.528 27.656 226.792 28.16 226.672C28.472 226.6 29.096 226.792 29.432 226.792C29.672 226.768 30.68 226.672 30.632 227.296C30.656 227.824 30.392 228.04 30.296 228.304C30.2 228.568 30.2 228.736 30.08 228.976C29.936 229.216 29.744 229.456 29.408 229.504H29.24C28.856 229.504 28.4 229.408 28.064 229.408C27.56 229.408 26.96 229.288 26.456 229.192C25.904 229.096 25.376 229.024 24.92 228.832C24.368 228.736 23.984 228.568 23.48 228.304C23.144 228.184 23.024 228.088 22.808 227.968C22.568 227.848 22.352 227.68 22.184 227.584C21.704 227.224 21.464 227.008 21.128 226.648C20.888 226.504 20.792 226.312 20.672 226.096C20.504 225.856 20.408 225.784 20.288 225.472C20.216 225.112 20.024 225.016 19.976 224.8C19.832 224.608 19.88 224.344 19.76 224.032C19.544 223.552 19.496 223.024 19.568 222.328C19.544 221.92 19.592 221.728 19.64 221.248C19.784 221.032 19.808 220.48 19.856 220.264C19.976 220.048 20 219.64 20.216 219.328C20.24 219.112 20.384 218.752 20.696 218.464C20.84 218.152 21.08 217.864 21.296 217.624C21.584 217.36 21.872 217.072 22.136 216.712C22.28 216.52 22.328 216.328 22.184 216.184C21.968 215.968 21.608 216.232 21.296 216.208C21.008 216.184 20.624 216.4 20.504 216.4C20.144 216.4 20 216.544 19.616 216.592C19.088 216.664 18.488 216.88 18.224 216.904C17.816 216.952 17.096 217.216 16.832 217.216C16.448 217.216 15.92 217.36 15.368 217.576C15.032 217.6 14.504 217.744 14.024 217.84C13.664 217.888 13.448 217.48 13.376 217.168C13.256 216.76 13.184 216.544 13.088 216.232C13.064 216.184 13.04 215.968 13.04 215.776C13.04 215.656 13.04 215.536 13.088 215.464C13.28 215.08 13.448 215.104 13.736 215.056C14.216 214.96 14.624 214.936 14.912 214.912C15.344 214.84 15.776 214.912 16.064 214.744C16.424 214.672 16.76 214.72 17.192 214.552C17.456 214.456 17.888 214.552 18.344 214.36C18.56 214.264 19.064 214.336 19.376 214.216C19.712 214.096 19.976 214.192 20.312 214.048C20.624 213.928 21.008 213.976 21.368 213.808C21.608 213.712 22.04 213.856 22.304 213.664C22.592 213.472 22.976 213.664 23.312 213.496C23.6 213.352 24.104 213.424 24.416 213.256C24.8 213.184 25.088 213.016 25.4 213.064C25.64 212.992 26.144 212.896 26.408 212.872C26.648 212.752 26.936 212.68 27.248 212.704C27.392 212.752 27.896 212.512 28.064 212.512C28.352 212.536 28.52 212.44 28.904 212.296C29.096 212.248 29.336 212.2 29.72 212.056C29.888 211.984 30.056 211.912 30.248 211.864H30.368C30.656 211.864 30.896 212.104 31.04 212.344C31.136 212.56 31.304 212.728 31.472 213.016C31.736 213.208 31.76 213.352 31.88 213.592ZM25.448 260.632C24.992 260.608 24.656 260.704 24.32 260.704C24.176 260.704 24.056 260.68 23.912 260.656C23.528 260.584 23.192 260.656 22.928 260.656C22.856 260.656 22.784 260.656 22.712 260.632C22.376 260.56 21.8 260.656 21.536 260.536C21.2 260.392 20.6 260.44 20.36 260.32C20.072 260.104 19.52 260.2 19.232 259.936C18.8 259.768 18.536 259.648 18.176 259.288C17.96 259.048 17.648 258.784 17.36 258.544C17.024 258.208 16.976 257.68 16.808 257.392C16.664 257.104 16.592 256.624 16.664 256.12C16.544 255.712 16.664 255.496 16.784 255.04C16.856 254.776 16.952 254.488 17.168 254.104C17.384 253.816 17.48 253.48 17.768 253.336C17.936 253.24 18.272 252.784 18.536 252.736C18.896 252.664 18.968 252.448 19.424 252.328C19.784 252.232 19.976 252.088 20.384 251.968C20.72 251.872 21.008 251.824 21.392 251.776C21.824 251.752 22.088 251.848 22.424 251.728C22.808 251.656 23.672 251.872 24.152 251.896C24.56 251.992 24.896 251.704 24.704 251.416C24.584 251.128 24.416 250.936 24.32 250.768C24.2 250.72 24.2 250.48 24.08 250.312C23.912 250.072 23.384 249.88 23.216 249.904C22.856 249.952 22.664 250.048 22.4 250.096C21.92 250.192 21.44 250.36 21.128 250.336C20.576 250.408 20.24 250.408 19.832 250.456C19.352 250.48 19.04 250.336 18.8 250.336C18.392 250.288 18.2 250.072 17.936 249.952C17.6 249.856 17.456 249.52 17.36 249.28C17.192 248.896 17.24 248.608 17.144 248.2C17.144 248.056 17.288 247.696 17.312 247.264C17.504 246.856 17.552 246.736 17.912 246.64C18.152 246.568 18.248 246.76 18.536 246.712C18.728 246.688 18.92 246.832 19.04 246.856C19.328 246.904 19.712 247.048 19.616 247.432C19.544 247.672 19.568 247.84 19.688 247.96C19.88 248.128 20.192 248.032 20.288 248.08C20.864 248.104 21.128 247.912 21.536 247.888C21.896 247.864 22.304 247.792 22.4 247.456C22.496 247.096 22.496 246.832 22.304 246.592C22.184 246.256 22.064 245.92 21.824 245.464C21.68 245.296 21.032 244.96 20.384 245.2C19.664 245.32 19.184 245.44 18.848 245.488C18.368 245.68 18.104 245.632 17.648 245.704C17.288 245.752 17.024 245.848 16.592 245.824C16.472 245.824 16.184 245.92 15.968 245.896C15.56 245.872 15.416 245.512 15.344 245.2C15.272 244.984 15.296 244.96 15.2 244.552C15.176 244.456 15.104 244.312 15.104 244.192C15.104 244.12 15.128 244.072 15.152 244.024C15.152 243.76 15.368 243.568 15.608 243.472C15.872 243.376 16.304 243.544 16.544 243.4C16.928 243.304 17.336 243.424 17.744 243.28C18.08 243.16 18.56 243.208 18.872 243.112C19.28 242.968 19.76 243.016 20.048 242.92C20.408 242.848 20.744 242.368 20.6 241.72C20.504 241.264 20.288 240.592 20.144 240.304C20.168 240.04 19.928 239.848 20.024 239.632C20.072 239.344 20.336 239.104 20.648 239.104C20.912 239.056 21.248 239.104 21.632 239.032H21.8C22.04 239.032 22.136 239.008 22.352 239.008H22.544C22.736 239.008 22.976 239.008 23.048 239.32C23.12 239.656 23 239.632 22.88 239.776C22.712 239.968 22.856 239.992 22.76 240.208C22.784 240.616 22.856 240.856 23.048 241.384C23.192 241.792 23.744 241.912 24.176 241.768C24.416 241.696 24.776 241.672 24.968 241.456C25.232 241.432 25.664 241.288 25.88 241.144C26.12 240.976 26.408 240.808 26.696 240.856C27.056 240.88 27.152 241.072 27.32 241.384C27.416 241.696 27.632 241.888 27.656 242.08C27.8 242.2 27.8 242.464 27.752 242.656C27.68 242.92 27.536 242.944 27.32 243.136C26.864 243.376 26.6 243.592 26.12 243.64C25.664 243.832 25.304 243.928 25.04 243.952C24.512 244.144 24.416 244.48 24.368 244.624C24.2 245.128 24.368 245.392 24.536 245.776C24.728 246.232 24.848 246.496 25.304 246.616C25.592 246.688 25.88 246.544 26.24 246.376C26.624 246.184 26.864 246.16 27.2 245.92C27.512 245.848 27.776 245.632 28.16 245.464C28.352 245.368 28.664 245.128 28.88 245.128C29.264 245.104 29.408 245.296 29.48 245.584C29.648 245.848 29.72 245.92 29.792 246.184C29.816 246.352 30.032 246.496 30.032 246.736V246.88C30.032 247.072 29.888 247.168 29.6 247.432C29.24 247.72 29.072 247.648 28.856 247.84C28.64 248.032 28.16 248.104 27.944 248.248C27.68 248.416 27.224 248.512 26.792 248.728C26.288 248.944 26.384 249.736 26.576 249.88C26.624 250.168 26.888 250.384 27.008 250.624C27.104 250.888 27.368 250.984 27.44 251.176C27.488 251.512 27.632 251.704 27.848 251.848C27.896 252.16 28.16 252.304 28.28 252.496C28.424 252.712 28.712 253.024 28.904 253.24C29.144 253.576 29.264 253.72 29.288 254.008C29.312 254.488 29.072 254.416 28.928 254.704C28.784 254.992 28.472 255.04 28.4 255.184C28.304 255.376 28.016 255.592 27.584 255.544C27.2 255.496 27.224 255.232 26.864 255.136C26.528 255.04 26.528 254.872 26.048 254.704C25.76 254.68 25.52 254.368 25.328 254.392C25.184 254.416 24.896 254.152 24.512 254.128C24.224 254.152 23.912 254.008 23.576 253.936C23.24 253.888 22.784 253.936 22.52 253.864C22.184 253.864 21.704 253.96 21.416 253.984C20.984 254.008 20.696 254.272 20.36 254.32C19.928 254.392 19.832 254.8 19.616 254.992C19.352 255.328 19.376 255.64 19.328 256.024C19.208 256.456 19.52 257.008 19.832 257.2C20.192 257.536 20.48 257.776 21.056 257.776C21.584 258.04 22.112 258.016 22.592 258.016C23.072 258.16 23.504 258.04 23.936 258.04C24.344 258.088 24.704 258.088 25.04 257.992C25.424 257.944 25.64 258.016 26.192 257.92C26.36 257.872 26.624 258.136 26.672 258.352C26.816 258.688 26.504 258.856 26.528 259.264C26.384 259.768 26.432 259.984 26.36 260.176C26.216 260.512 25.928 260.656 25.64 260.656C25.592 260.656 25.52 260.656 25.448 260.632ZM22.4 276.208C22.112 276.328 21.704 276.328 21.464 276.376C21.152 276.448 20.504 276.976 20.408 277.192C20.264 277.504 20.264 277.72 20.12 278.032C19.928 278.44 19.832 278.944 19.736 279.256C19.592 279.712 19.448 280 19.328 280.456C19.208 280.792 19.112 281.248 18.896 281.656C18.68 282.304 18.512 282.616 18.392 283L17.864 284.344C17.648 284.752 17.48 285.232 17.312 285.688C17.12 286.24 16.88 286.84 16.712 287.008C16.568 287.152 16.592 287.44 16.448 287.536C16.256 287.656 16.256 288.112 16.112 288.256C15.896 288.496 15.896 288.928 15.656 289.12C15.416 289.312 15.512 289.552 15.296 289.696C15.152 289.792 15.056 289.84 14.936 289.84C14.888 289.84 14.864 289.84 14.816 289.816C14.552 289.744 14.048 289.36 13.88 289.264C13.52 289.12 13.112 288.856 13.112 288.52C13.112 288.496 13.136 288.448 13.136 288.424V288.328C13.136 288.064 13.304 287.752 13.424 287.632C13.64 287.416 13.64 287.224 13.904 286.768C14.024 286.408 14.192 286.168 14.384 285.784C14.624 285.376 14.816 285.208 14.912 284.776C14.984 284.488 15.224 284.224 15.32 283.816C15.392 283.504 15.632 283.336 15.656 283.048C15.68 282.736 15.8 282.76 15.896 282.4C16.064 282.04 16.16 281.872 16.256 281.488C16.28 281.32 16.544 281.104 16.568 280.696C16.592 280.456 16.832 280.216 16.856 279.904C16.856 279.616 17.12 279.472 17.144 279.112C17.168 278.848 17.264 278.8 17.312 278.608C17.384 278.296 17.456 278.176 17.504 277.888C17.576 277.576 17.24 276.904 16.784 276.952C16.496 277.024 16.352 276.928 15.92 276.976C15.512 277.024 15.488 276.952 15.2 277C14.84 277.072 14.72 276.904 14.456 277C14.096 277.12 13.832 276.76 13.808 276.328C13.784 275.992 13.808 275.752 13.76 275.344C13.76 274.984 13.832 274.72 14.24 274.576C14.552 274.432 14.912 274.552 15.296 274.504C15.704 274.528 16.04 274.432 16.544 274.504C17 274.48 17.312 274.432 17.84 274.384C18.2 274.312 18.608 273.856 18.776 273.544C18.92 273.184 18.92 272.944 19.016 272.488C19.088 272.176 19.208 271.84 19.232 271.36C19.256 271.024 19.424 270.784 19.4 270.424C19.352 270.112 19.616 269.752 20 269.752C20.24 269.752 20.336 269.944 20.528 269.896C20.936 269.92 21.056 270.088 21.344 270.112C21.656 270.112 21.728 270.208 22.064 270.256C22.256 270.28 22.544 270.448 22.544 270.592C22.568 271.024 22.184 271.072 22.016 271.312C21.92 271.456 21.896 271.768 21.848 271.912C21.752 272.272 21.656 272.608 21.584 273.016C21.488 273.352 21.8 273.76 22.064 273.736C22.4 273.76 22.472 273.64 22.808 273.616C23.096 273.616 23.36 273.4 23.888 273.28C24.296 273.184 24.584 273.424 24.68 273.808C24.728 274.024 24.824 274.384 24.944 274.528C25.04 274.792 25.016 274.936 24.968 275.152C24.92 275.368 24.776 275.56 24.56 275.584C24.344 275.704 23.96 275.8 23.408 275.944C22.928 276.064 22.64 276.112 22.4 276.208ZM23.816 278.056C24.248 277.984 24.536 277.816 24.776 277.84C25.04 277.816 25.496 277.672 25.736 277.648C25.976 277.6 26.384 277.624 26.792 277.528C27.344 277.432 27.728 277.528 28.184 277.432C28.616 277.336 29.096 277.432 29.6 277.432C29.96 277.432 30.44 277.456 30.848 277.456C31.088 277.48 31.616 277.696 31.496 278.224C31.448 278.68 31.4 278.92 31.448 279.088C31.52 279.544 31.184 279.928 30.776 279.88C30.128 279.832 29.624 279.808 28.928 279.832C28.448 279.808 28.064 279.928 27.704 279.88C27.296 279.832 26.816 280.072 26.456 280.024C26 279.952 25.664 280.264 25.232 280.216C24.704 280.216 24.416 280.576 24.008 280.528C23.6 280.48 23.264 280.744 22.952 280.744C22.544 280.84 22.448 280.528 22.352 280.216C22.28 279.976 22.304 279.784 22.16 279.568C22.088 279.448 22.016 279.208 22.064 279.064C22.088 278.584 22.568 278.44 22.856 278.32C23.12 278.2 23.48 278.104 23.816 278.056ZM32.336 287.248C32.288 287.8 32.216 288.064 32.24 288.64C32.264 289.048 32.144 289.384 31.736 289.432C31.592 289.576 31.328 289.504 31.016 289.576C30.68 289.648 30.104 289.672 29.768 289.696C29.48 289.72 29.144 289.768 28.712 289.72C28.352 289.744 27.848 289.696 27.56 289.744C27.272 289.744 26.888 289.672 26.552 289.696C26.024 289.72 25.832 289.576 25.424 289.648C25.016 289.72 24.632 289.504 24.272 289.528C23.84 289.552 23.552 289.432 23.144 289.288C22.736 289.216 22.568 289.072 22.28 288.904C21.872 288.736 21.656 288.496 21.512 288.28C21.32 287.944 21.248 287.776 21.176 287.488C21.104 287.176 21.104 286.888 21.056 286.456C21.008 286.192 21.152 285.952 21.128 285.64C21.104 285.448 21.248 285.208 21.392 284.824C21.392 284.656 21.584 284.416 21.776 284.056C21.824 283.84 22.04 283.696 22.208 283.432C22.304 283.288 22.544 283.12 22.88 283.12C23.048 283.072 23.168 283.288 23.336 283.288C23.384 283.432 23.6 283.312 23.768 283.552C24.104 283.792 24.176 283.864 24.2 284.152C24.296 284.224 24.224 284.392 24.128 284.512C24.104 284.68 23.936 284.896 23.864 285.016C23.744 285.256 23.6 285.544 23.576 285.856C23.528 286.288 23.768 286.696 24.2 286.888C24.488 287.056 24.608 287.056 25.016 287.128C25.376 287.176 25.832 287.224 26.144 287.224C26.768 287.248 27.104 287.368 27.728 287.248C28.208 287.152 28.688 287.344 29.24 287.2C29.6 287.104 30.128 287.08 30.584 287.008C31.04 286.936 31.16 286.96 31.712 286.816C31.904 286.744 32.336 286.984 32.336 287.248ZM21.5272 304.216C21.4552 303.856 21.3592 303.304 21.4792 302.824C21.4072 302.416 21.4072 301.888 21.4552 301.432C21.4552 301.048 21.6712 300.616 22.1272 300.616H22.6312C22.9432 300.616 23.2072 300.616 23.4712 300.616C23.6152 300.616 23.7352 300.616 23.8552 300.616C24.4312 300.736 24.6472 300.904 24.6472 301.432C24.6232 301.696 24.6952 302.008 24.6952 302.32C24.6952 302.488 24.6712 302.656 24.6232 302.824C24.4312 303.424 24.6952 303.832 24.5752 304.216C24.4312 304.696 24.6472 305.152 24.5272 305.584C24.3832 306.088 24.6232 306.544 24.4792 306.976C24.2872 307.504 24.5272 307.96 24.4312 308.344L24.3832 309.712C24.4552 310.24 24.3352 310.624 24.3592 311.104C24.2392 311.584 24.4072 311.992 24.2872 312.496C24.2632 313 23.9992 313.384 23.4472 313.288C23.2552 313.192 22.9912 313.288 22.6312 313.288C22.0072 313.408 21.8872 313.072 21.7912 312.496C21.7432 311.968 21.6472 311.68 21.7432 311.104C21.8152 310.6 21.7192 310.264 21.6952 309.712C21.5752 309.328 21.5992 308.824 21.6472 308.344L21.5992 306.976C21.6952 306.472 21.6232 306.016 21.5512 305.584C21.6472 305.248 21.5032 304.672 21.5272 304.216ZM22.1992 319.048C22.1272 319.072 22.0312 319.072 21.9592 319.072C21.5272 319.072 21.2872 318.76 21.3832 318.232C21.3352 318.016 21.3112 317.752 21.3112 317.488V316.408C21.3112 315.952 21.5992 315.808 22.1992 315.712C22.7992 315.64 23.2312 315.64 23.9032 315.712C24.4552 315.664 24.7192 315.88 24.7192 316.384V316.624C24.7192 316.96 24.6712 317.32 24.6712 317.704C24.6712 317.872 24.6952 318.04 24.7192 318.232C24.6952 318.76 24.4312 319 23.9032 319.048C23.3032 319 22.7032 318.976 22.1992 319.048Z" fill="#0195FF"/>
</svg>
